<svg width="33" height="20" viewBox="0 0 33 20" fill="none" xmlns="http://www.w3.org/2000/svg">
<path d="M13.1404 8.08442L10.9704 9.13622L13.2479 9.92873C14.1179 10.2315 14.7128 10.6837 15.1079 11.2589C15.5041 11.8445 15.7283 12.588 15.7283 13.536C15.7283 14.4985 15.4776 15.3351 14.9864 16.0725L14.9808 16.081L14.9753 16.0896C14.6596 16.5852 14.2657 17.0014 13.7946 17.337L13.7946 17.3369L13.7862 17.343C13.2679 17.7204 12.6391 17.9922 11.8763 18.1445C11.0629 18.3048 10.1698 18.3858 9.18923 18.3858H1V1H9.84816C12.1701 1.03464 13.5687 1.67125 14.3476 2.67447C14.8229 3.30587 15.0765 4.07071 15.0765 5.02682C15.0765 6.02854 14.8168 6.72688 14.3842 7.22134C14.1426 7.49255 13.7466 7.79059 13.1404 8.08442ZM4.06554 2.36712H3.06554V3.36712V7.64459V8.64459H4.06554H9.02422C10.0199 8.64459 10.9283 8.46417 11.6814 8.02983L11.6842 8.0282C12.6283 7.47963 13.011 6.52026 13.011 5.46212C13.011 4.87789 12.8932 4.30887 12.5902 3.81351C12.2809 3.30788 11.8254 2.95619 11.2872 2.74082L11.2534 2.72731L11.2188 2.71628C10.4556 2.47356 9.53991 2.36712 8.50443 2.36712H4.06554ZM11.5069 16.5873L11.507 16.5873L11.514 16.584C12.1346 16.2891 12.6331 15.8428 12.9656 15.2426C13.2918 14.6538 13.4256 13.9769 13.4256 13.2598C13.4256 12.6117 13.2866 11.9919 12.9503 11.4524C12.6111 10.9082 12.1162 10.5185 11.5278 10.262L11.5278 10.262L11.5222 10.2596C10.8614 9.97628 10.0299 9.8591 9.09292 9.85271V9.85269H9.0861H4.06554H3.06554V10.8527V16.0226V17.0226H4.06554H9.01803C9.96553 17.0226 10.8249 16.9049 11.5069 16.5873Z" fill="#212121" stroke="#212121" stroke-width="2"/>
<path d="M22.0889 2.31709V1.90405H28.8284V2.31709H22.0889Z" fill="#212121" stroke="#212121" stroke-width="2"/>
<path d="M31.8773 10.5868L31.8776 10.5886C31.9432 10.9894 31.9837 11.5475 31.996 12.2736H22.0086H20.9616L21.0097 13.3194C21.0864 14.9887 21.7158 16.3641 23.0814 17.1586C23.866 17.6257 24.7711 17.8375 25.7648 17.8375C26.8226 17.8375 27.786 17.5773 28.5639 16.9718C28.8471 16.7532 29.0944 16.4914 29.3105 16.1956H31.3477C31.1673 16.4737 30.9275 16.7706 30.617 17.0863L30.617 17.0863L30.6125 17.0909C29.4946 18.2422 27.8891 18.8766 25.6554 18.8766C23.8566 18.8766 22.3031 18.357 20.953 17.3204L20.9509 17.3187C19.7447 16.3979 19.04 14.8379 19.04 12.3751C19.04 10.0793 19.6751 8.46744 20.8078 7.38177C21.9831 6.26326 23.5175 5.67091 25.509 5.67091L25.5105 5.67091C26.7106 5.6691 27.7553 5.87359 28.6634 6.26213L28.6662 6.26331C29.542 6.63492 30.2634 7.22024 30.8433 8.04076L30.8478 8.04716L30.8524 8.05348C31.3746 8.76827 31.7188 9.60578 31.8773 10.5868ZM21.1194 10.6458L20.9408 11.7989H22.1076H28.9042H29.9793L29.9015 10.7266C29.8141 9.52063 29.3705 8.4899 28.493 7.76151L28.493 7.76147L28.4851 7.75504C27.6491 7.07542 26.6396 6.75975 25.5131 6.75975L25.5112 6.75976C24.3225 6.7621 23.2544 7.08931 22.4604 7.8657L22.4591 7.86698C21.7184 8.59399 21.2897 9.54624 21.1194 10.6458Z" fill="#212121" stroke="#212121" stroke-width="2"/>
</svg>
