<svg width="25" height="25" viewBox="0 0 25 25" fill="none" xmlns="http://www.w3.org/2000/svg">
<path d="M23.5282 3.93793L4.39493 23.4955C3.58214 24.3263 2.43423 24.5001 1.8312 23.8837C1.22818 23.2673 1.39825 22.094 2.21105 21.2632L21.3443 1.70562C22.1571 0.8748 23.305 0.700953 23.908 1.31735C24.511 1.93375 24.341 3.10711 23.5282 3.93793Z" fill="#212121"/>
<path d="M20.6047 23.2943L1.4715 3.73674C0.658702 2.90592 0.488626 1.73255 1.09165 1.11616C1.69468 0.499759 2.84259 0.673607 3.65538 1.50443L22.7886 21.062C23.6014 21.8928 23.7715 23.0661 23.1685 23.6825C22.5654 24.2989 21.4175 24.1251 20.6047 23.2943Z" fill="#212121"/>
</svg>
