<svg width="24" height="24" viewBox="0 0 24 24" fill="none" xmlns="http://www.w3.org/2000/svg">
<path d="M19.3936 4.84101C19.3936 5.11833 19.172 5.27954 18.9762 5.27954C18.7804 5.27954 18.5589 5.11829 18.5589 4.84101C18.5589 4.56373 18.7804 4.40248 18.9762 4.40248C19.172 4.40248 19.3936 4.56369 19.3936 4.84101Z" fill="#212121" stroke="#212121" stroke-width="2"/>
<path d="M7.83398 11.5638C7.83398 9.40601 9.66825 7.58618 11.9994 7.58618C14.3306 7.58618 16.1649 9.40605 16.1649 11.5638C16.1649 13.7216 14.3306 15.5414 11.9994 15.5414C9.66826 15.5414 7.83398 13.7216 7.83398 11.5638Z" fill="#212121" stroke="#212121" stroke-width="2"/>
<path d="M6.57923 1H17.4208C20.5316 1 23 3.43098 23 6.34003V16.7873C23 19.6963 20.5316 22.1273 17.4208 22.1273H6.57923C3.46848 22.1273 1 19.6963 1 16.7873V6.34003C1 3.43098 3.46849 1 6.57923 1ZM4.4173 11.5636C4.4173 15.6483 7.85318 18.907 12 18.907C16.1468 18.907 19.5828 15.6482 19.5828 11.5636C19.5828 10.152 19.1723 8.83897 18.464 7.72503C18.6311 7.75341 18.8024 7.76816 18.9765 7.76816C20.5963 7.76816 21.9764 6.4904 21.9764 4.84087C21.9764 3.19132 20.5963 1.91363 18.9765 1.91363C17.3566 1.91363 15.9765 3.19139 15.9765 4.84092C15.9765 5.01153 15.9912 5.17816 16.0195 5.33981C14.8498 4.62959 13.4695 4.22035 12 4.22035C7.85325 4.22035 4.4173 7.47897 4.4173 11.5636Z" fill="#212121" stroke="#212121" stroke-width="2"/>
</svg>
