<svg width="28" height="24" viewBox="0 0 28 24" fill="none" xmlns="http://www.w3.org/2000/svg">
<path d="M21.5678 22.0515L12.4957 15.3604C15.4803 12.7745 23.6042 5.73475 24.0166 5.36426L24.0171 5.36381C24.2547 5.15015 24.4875 4.88043 24.6132 4.55567C24.7428 4.221 24.8058 3.62888 24.326 3.188C23.9313 2.82527 23.4394 2.83786 23.1763 2.87798C22.8689 2.92487 22.564 3.05014 22.2812 3.21564L22.2727 3.22062L22.2643 3.22576L6.97171 12.5842L1.37609 10.7689L1.37378 10.7681C1.36281 10.7638 1.34265 10.7555 1.3163 10.7434C1.26617 10.7204 1.20362 10.688 1.14259 10.6481C1.19625 10.6181 1.25088 10.5918 1.29975 10.5705C1.33542 10.5549 1.36412 10.5437 1.38176 10.537L1.39816 10.5311L1.39841 10.531L1.41396 10.5258L1.4341 10.5182L26.1038 1.19239L26.1221 1.18548L26.1368 1.17924L26.137 1.17914L26.1372 1.17907L26.1374 1.17899L26.1383 1.17861L26.1444 1.17616C26.1526 1.17287 26.1671 1.16716 26.187 1.15972C26.2272 1.14473 26.2873 1.12346 26.3601 1.10114C26.4738 1.06626 26.5985 1.0351 26.716 1.01683L22.4332 21.8248C22.431 21.8282 22.4287 21.8317 22.4264 21.8353C22.3847 21.8987 22.3264 21.9692 22.2553 22.0239C22.1899 22.0743 22.1167 22.11 22.0226 22.1223C21.9403 22.1332 21.7944 22.1325 21.5678 22.0515Z" fill="#212121" stroke="#212121" stroke-width="2"/>
</svg>
