<svg width="24" height="24" viewBox="0 0 24 24" fill="none" xmlns="http://www.w3.org/2000/svg">
<path d="M9.7245 8.37496L10.6216 7.93315L10.6214 7.93262C10.6195 7.92867 10.6074 7.90241 10.5804 7.8414C10.554 7.78167 10.5195 7.7028 10.4787 7.60867C10.3972 7.42071 10.2928 7.17794 10.1815 6.91809C10.0929 6.71155 9.99983 6.49387 9.91069 6.28544C9.77666 5.97207 9.65156 5.6796 9.56443 5.4773L9.56348 5.4751C9.42696 5.16022 9.22444 4.78577 8.84279 4.54548C8.48788 4.32203 8.10847 4.30908 7.95224 4.30375C7.94349 4.30345 7.93544 4.30318 7.92813 4.30289C7.91877 4.30244 7.90909 4.30197 7.89911 4.30148C7.78929 4.29609 7.64291 4.28892 7.482 4.28892C6.88584 4.28892 6.10378 4.44983 5.55376 4.99084L5.55357 4.99103C5.54356 5.00087 5.53307 5.01116 5.52212 5.0219C5.10564 5.43024 4.028 6.48681 4.028 8.51806C4.028 9.58142 4.42364 10.5662 4.79204 11.266C5.14834 11.9429 5.52596 12.439 5.639 12.5875C5.64536 12.5959 5.65088 12.6032 5.65551 12.6093L5.66183 12.6176L5.6657 12.6225C5.66545 12.6222 5.66531 12.622 5.6653 12.6221C5.66523 12.6221 5.6734 12.6331 5.69796 12.6674C5.70296 12.6744 5.70839 12.6819 5.71421 12.69C5.73861 12.7241 5.76991 12.7678 5.80605 12.8177C5.89656 12.9426 6.02039 13.1107 6.1754 13.3103C6.48494 13.709 6.91911 14.2341 7.46485 14.7992C8.54735 15.9202 10.1115 17.2432 12.0567 18.0198C13.4676 18.5834 14.4415 18.8636 15.1767 18.9759C15.9526 19.0945 16.4377 19.0216 16.8315 18.9408L16.8343 18.9402C17.4184 18.8186 18.0504 18.5583 18.5894 18.2067C19.1074 17.8689 19.6723 17.3595 19.9241 16.6742L19.9243 16.6737C20.0995 16.196 20.1908 15.7451 20.2243 15.3747C20.2409 15.1905 20.2446 15.0115 20.2321 14.8488C20.2237 14.7382 20.1993 14.4672 20.0534 14.2186L20.0534 14.2186L20.0494 14.2119C19.8539 13.8846 19.5518 13.7215 19.4218 13.653C19.3389 13.6094 19.2093 13.5489 19.0993 13.4975C19.0437 13.4716 18.9932 13.448 18.9561 13.4301L18.9531 13.4286C18.7746 13.343 18.2541 13.0948 17.7363 12.8538C17.2646 12.6342 16.7002 12.3753 16.461 12.2925C16.1776 12.1911 15.8161 12.1282 15.4264 12.226C15.0174 12.3286 14.6955 12.5785 14.4626 12.8955L15.2685 13.4875M9.7245 8.37496L10.6185 7.92684C10.7148 8.1191 11.0255 8.7618 10.6674 9.45331C10.5007 9.79125 10.3259 9.98423 10.168 10.1586C10.1552 10.1727 10.1426 10.1866 10.1302 10.2005C10.0411 10.2994 9.95206 10.3904 9.88 10.4641C9.86683 10.4775 9.85422 10.4904 9.84229 10.5027C9.81512 10.5306 9.78982 10.5568 9.76582 10.5821C10.0619 11.0264 10.6078 11.7689 11.3221 12.3816L11.3221 12.3816C12.4206 13.324 13.3073 13.6705 13.7446 13.8406C13.904 13.6512 14.0953 13.3924 14.3248 13.0817C14.3701 13.0205 14.4168 12.9572 14.4651 12.8921L15.2685 13.4875M9.7245 8.37496C9.81 8.54553 9.8955 8.7768 9.7755 9.00085C9.66999 9.21775 9.57635 9.3215 9.41911 9.49572C9.40869 9.50726 9.398 9.51911 9.387 9.53133C9.31295 9.61357 9.24047 9.68772 9.16825 9.76161C9.06785 9.86432 8.96795 9.96653 8.865 10.0893C8.86205 10.0926 8.8591 10.096 8.85614 10.0993C8.69647 10.28 8.52371 10.4756 8.724 10.8091C8.928 11.1416 9.633 12.2502 10.671 13.1406C11.9017 14.1964 12.9184 14.5921 13.3767 14.7705C13.4173 14.7863 13.4534 14.8003 13.485 14.813C13.7745 14.9287 14.1195 14.9012 14.331 14.6844M9.7245 8.37496C9.66567 8.25551 9.30228 7.40587 8.99032 6.6765C8.85683 6.36439 8.73276 6.07431 8.646 5.87288C8.4135 5.33662 8.2365 5.31638 7.884 5.30193C7.8732 5.30141 7.86229 5.30087 7.85126 5.30034C7.73984 5.2949 7.61713 5.28892 7.482 5.28892C7.023 5.28892 6.5445 5.41901 6.255 5.70376L13.7582 14.1331L14.331 14.6844M15.2685 13.4875C15.5085 13.1609 15.8115 13.1204 16.1295 13.236M15.2685 13.4875C15.2228 13.5491 15.1773 13.6108 15.132 13.6722C14.8425 14.0646 14.5632 14.4431 14.331 14.6844M16.1295 13.236L13.7604 14.1277L14.331 14.6844M16.1295 13.236C16.4535 13.3444 18.168 14.1611 18.5205 14.3302M16.1295 13.236L18.5205 14.3302M18.5205 14.3302C18.5933 14.3655 18.661 14.3969 18.7234 14.4258M18.5205 14.3302L18.7234 14.4258M18.7234 14.4258C18.9628 14.5369 19.1232 14.6113 19.191 14.7248L18.7234 14.4258ZM3.22891 18.6701L3.40472 18.1651L3.08233 17.7385C1.769 16.0005 1 13.8658 1 11.5636C1 5.77293 5.8978 1 11.997 1H12.003C18.1021 1 23 5.77429 23 11.5636C23 17.353 18.1021 22.1273 12.003 22.1273C9.75635 22.1273 7.67907 21.4839 5.93957 20.3735L5.54944 20.1244L5.1071 20.2607L2.38308 21.0998L3.22891 18.6701Z" fill="#212121" stroke="#212121" stroke-width="2"/>
</svg>
