<svg width="6" height="26" viewBox="0 0 6 26" fill="none" xmlns="http://www.w3.org/2000/svg">
<path d="M3 26C1.66768 26 0.587629 24.9199 0.587629 23.5876V11.2966C0.587629 9.96432 1.66768 8.88427 3 8.88427C4.33232 8.88427 5.41237 9.96432 5.41237 11.2966V23.5876C5.41237 24.9199 4.33232 26 3 26ZM3 6.20828C2.1134 6.20828 1.39175 5.91095 0.835051 5.31629C0.27835 4.72163 0 3.98424 0 3.10414C0 2.22404 0.27835 1.48666 0.835051 0.891996C1.39175 0.297332 2.1134 0 3 0C3.8866 0 4.60825 0.285439 5.16495 0.856317C5.72165 1.40341 6 2.117 6 2.9971C6 3.92478 5.72165 4.69784 5.16495 5.31629C4.62887 5.91095 3.90722 6.20828 3 6.20828Z" fill="black"/>
</svg>
