<svg width="39" height="24" viewBox="0 0 39 24" fill="none" xmlns="http://www.w3.org/2000/svg">
<path d="M15.7967 10.454C16.5935 10.0678 17.1959 9.63762 17.6087 9.17276C18.3431 8.33555 18.7055 7.22544 18.7055 5.84937C18.7055 4.5103 18.3431 3.3655 17.6183 2.40572C16.4087 0.842321 14.3615 0.0421173 11.4671 0.000488281H-6.10352e-05V22.5565H10.6919C11.8967 22.5565 13.0127 22.4571 14.0447 22.2535C15.0767 22.0477 15.9695 21.6707 16.7255 21.1203C17.3975 20.6416 17.9591 20.0472 18.4055 19.3464C19.1111 18.2872 19.4639 17.0869 19.4639 15.7502C19.4639 14.455 19.1543 13.3519 18.5399 12.4453C17.9183 11.5387 17.0063 10.8749 15.7967 10.454ZM4.73034 3.91825H9.89513C11.0303 3.91825 11.9663 4.0362 12.7007 4.26978C13.5503 4.60975 13.9751 5.30126 13.9751 6.35586C13.9751 7.30176 13.6511 7.9632 13.0103 8.33555C12.3647 8.7079 11.5271 8.89523 10.4999 8.89523H4.73034V3.91825ZM12.8975 18.2456C12.3263 18.5115 11.5223 18.6434 10.4927 18.6434H4.73034V12.628H10.5719C11.5895 12.6349 12.3815 12.7644 12.9479 13.0073C13.9559 13.4467 14.4575 14.2515 14.4575 15.4287C14.4575 16.8163 13.9391 17.7507 12.8975 18.2456Z" fill="black"/>
<path d="M34.7061 1.05261H24.5374V3.86026H34.7061V1.05261Z" fill="black"/>
<path d="M38.2389 12.1331C38.0277 10.8264 37.5621 9.67698 36.8373 8.68482C36.0429 7.56084 35.0349 6.7375 33.8085 6.21714C32.5869 5.69446 31.2117 5.43313 29.6805 5.43544C27.1101 5.43544 25.0221 6.2102 23.4069 7.74817C21.7965 9.29075 20.9901 11.5087 20.9901 14.3996C20.9901 17.4824 21.8805 19.7096 23.6709 21.0764C25.4541 22.4455 27.5133 23.1278 29.8509 23.1278C32.6805 23.1278 34.8813 22.316 36.4533 20.6971C37.4589 19.6749 38.0277 18.6689 38.1525 17.6813H33.4677C33.1965 18.1693 32.8821 18.5509 32.5221 18.8284C31.8693 19.3372 31.0197 19.5916 29.9781 19.5916C28.9869 19.5916 28.1469 19.3812 27.4461 18.9626C26.2893 18.2919 25.6845 17.117 25.6077 15.4449H38.3925C38.4117 14.0041 38.3637 12.8963 38.2389 12.1331ZM25.7229 12.5656C25.8909 11.4809 26.2989 10.6206 26.9469 9.98457C27.5949 9.35088 28.5117 9.03173 29.6853 9.02942C30.7677 9.02942 31.6725 9.32776 32.4093 9.92675C33.1365 10.5304 33.5469 11.4069 33.6309 12.5656H25.7229Z" fill="black"/>
</svg>
