<svg width="13" height="24" viewBox="0 0 13 24" fill="none" xmlns="http://www.w3.org/2000/svg">
<path d="M3.60444 13.1819C3.51433 13.1819 1.53185 13.1819 0.630728 13.1819C0.150127 13.1819 -6.10352e-05 13.0082 -6.10352e-05 12.574C-6.10352e-05 11.4162 -6.10352e-05 10.2295 -6.10352e-05 9.07165C-6.10352e-05 8.60853 0.180164 8.4638 0.630728 8.4638H3.60444C3.60444 8.37697 3.60444 6.69814 3.60444 5.91662C3.60444 4.75881 3.81471 3.65889 4.41546 2.6458C5.04625 1.60377 5.94737 0.909086 7.0888 0.503852C7.83974 0.243344 8.59068 0.127563 9.40169 0.127563H12.3454C12.7659 0.127563 12.9461 0.301235 12.9461 0.706469V4.00623C12.9461 4.41146 12.7659 4.58514 12.3454 4.58514C11.5344 4.58514 10.7233 4.58514 9.91233 4.61408C9.10132 4.61408 8.68079 4.99037 8.68079 5.80084C8.65075 6.6692 8.68079 7.50861 8.68079 8.40591H12.1651C12.6457 8.40591 12.826 8.57958 12.826 9.04271V12.5451C12.826 13.0082 12.6758 13.1529 12.1651 13.1529C11.0838 13.1529 8.7709 13.1529 8.68079 13.1529V22.5891C8.68079 23.0812 8.5306 23.2548 7.98993 23.2548C6.72835 23.2548 5.49681 23.2548 4.23523 23.2548C3.78467 23.2548 3.60444 23.0812 3.60444 22.647C3.60444 19.6077 3.60444 13.2687 3.60444 13.1819Z" fill="black"/>
</svg>
