<svg width="24" height="24" viewBox="0 0 24 24" fill="none" xmlns="http://www.w3.org/2000/svg">
<path d="M18.9764 4.27991C18.6552 4.27991 18.3937 4.53182 18.3937 4.84138C18.3937 5.15093 18.6552 5.40284 18.9764 5.40284C19.2977 5.40284 19.559 5.15097 19.559 4.84138C19.559 4.53178 19.2977 4.27991 18.9764 4.27991Z" fill="black"/>
<path d="M11.9998 6.58655C9.15163 6.58655 6.83441 8.8195 6.83441 11.5642C6.83441 14.3088 9.15163 16.5418 11.9998 16.5418C14.8481 16.5418 17.1653 14.3088 17.1653 11.5642C17.1653 8.81955 14.8481 6.58655 11.9998 6.58655Z" fill="black"/>
<path d="M17.4207 0.000488281H6.57917C2.95138 0.000488281 -6.10352e-05 2.8446 -6.10352e-05 6.34052V16.7878C-6.10352e-05 20.2837 2.95138 23.1278 6.57917 23.1278H17.4207C21.0485 23.1278 23.9999 20.2836 23.9999 16.7878V6.34052C23.9999 2.8446 21.0485 0.000488281 17.4207 0.000488281ZM11.9999 17.9075C8.37017 17.9075 5.41724 15.0619 5.41724 11.5641C5.41724 8.06635 8.37022 5.22084 11.9999 5.22084C15.6297 5.22084 18.5827 8.0664 18.5827 11.5641C18.5827 15.0619 15.6297 17.9075 11.9999 17.9075ZM18.9764 6.76865C17.8736 6.76865 16.9764 5.90409 16.9764 4.84141C16.9764 3.77873 17.8736 2.91412 18.9764 2.91412C20.0792 2.91412 20.9764 3.77868 20.9764 4.84136C20.9764 5.90404 20.0792 6.76865 18.9764 6.76865Z" fill="black"/>
</svg>
