<svg width="24" height="24" viewBox="0 0 24 24" fill="none" xmlns="http://www.w3.org/2000/svg">
<path d="M12.0029 0.000366211H11.9969C5.38044 0.000366211 -6.10352e-05 5.18666 -6.10352e-05 11.564C-6.10352e-05 14.0935 0.845939 16.4381 2.28444 18.3417L0.788939 22.6376L5.40144 21.2167C7.29894 22.428 9.56244 23.1276 12.0029 23.1276C18.6194 23.1276 23.9999 17.9399 23.9999 11.564C23.9999 5.1881 18.6194 0.000366211 12.0029 0.000366211ZM18.9854 16.3297C18.6959 17.1174 17.5469 17.7708 16.6304 17.9616C16.0034 18.0902 15.1844 18.1929 12.4274 17.0914C8.90094 15.6835 6.62994 12.2304 6.45294 12.0063C6.28344 11.7823 5.02794 10.1778 5.02794 8.51843C5.02794 6.85905 5.90244 6.05104 6.25494 5.70413C6.54444 5.41938 7.02294 5.28928 7.48194 5.28928C7.63044 5.28928 7.76394 5.29651 7.88394 5.30229C8.23644 5.31675 8.41344 5.33699 8.64594 5.87325C8.93544 6.54539 9.64044 8.20477 9.72444 8.37533C9.80994 8.54589 9.89544 8.77717 9.77544 9.00121C9.66294 9.23248 9.56394 9.33511 9.38694 9.53169C9.20994 9.72828 9.04194 9.8786 8.86494 10.0896C8.70294 10.2732 8.51994 10.4698 8.72394 10.8095C8.92794 11.1419 9.63294 12.2506 10.6709 13.141C12.0104 14.2901 13.0964 14.6573 13.4849 14.8134C13.7744 14.929 14.1194 14.9016 14.3309 14.6847C14.5994 14.4058 14.9309 13.9432 15.2684 13.4879C15.5084 13.1612 15.8114 13.1208 16.1294 13.2364C16.4534 13.3448 18.1679 14.1615 18.5204 14.3306C18.8729 14.5012 19.1054 14.5821 19.1909 14.7252C19.2749 14.8683 19.2749 15.5404 18.9854 16.3297Z" fill="black"/>
</svg>
