<svg width="30" height="30" viewBox="0 0 30 30" fill="none" xmlns="http://www.w3.org/2000/svg">
<path d="M25.9659 27.8815L1.85573 3.9965C0.831514 2.98185 0.489052 1.67581 1.09088 1.0796C1.69271 0.483391 3.01107 0.822653 4.03529 1.8373L28.1455 25.7223C29.1697 26.7369 29.5122 28.043 28.9103 28.6392C28.3085 29.2354 26.9902 28.8961 25.9659 27.8815Z" fill="white"/>
<path d="M28.1444 4.27776L4.03419 28.1627C3.00997 29.1774 1.69161 29.5166 1.08978 28.9204C0.487949 28.3242 0.830411 27.0182 1.85463 26.0035L25.9648 2.11856C26.989 1.10391 28.3074 0.764651 28.9092 1.36086C29.5111 1.95707 29.1686 3.26311 28.1444 4.27776Z" fill="white"/>
</svg>
