<svg width="92" height="44" viewBox="0 0 92 44" fill="none" xmlns="http://www.w3.org/2000/svg">
<path d="M0.687052 0.308439C1.1237 -0.0164231 1.7281 0.196744 2.03296 0.784798C2.18188 1.07184 17.2852 29.587 41.9269 38.243C56.5421 43.3767 71.5771 40.5731 86.6506 29.9553L83.0084 29.5091C82.4755 29.4424 82.0389 28.85 82.0331 28.1789C82.0271 27.5104 82.4561 27.0206 82.9895 27.0863L91.2747 28.1018L88.387 37.562C88.2042 38.1642 87.6485 38.4114 87.1477 38.1136C87.0768 38.0718 87.0112 38.0207 86.9498 37.962C86.5831 37.6115 86.4165 37.0008 86.5736 36.484L87.9611 31.9387C72.3834 42.9947 56.7957 45.9211 41.5964 40.5822C32.8075 37.4949 25.1994 31.964 18.996 26.0338C7.25452 14.8095 0.552377 2.15475 0.451397 1.96127C0.145474 1.3751 0.250685 0.635008 0.687052 0.308439Z" fill="white"/>
</svg>
