<svg width="38" height="24" viewBox="0 0 38 24" fill="none" xmlns="http://www.w3.org/2000/svg">
<path d="M15.8725 11.2077C16.6401 10.8205 17.2204 10.3891 17.6181 9.92305C18.3256 9.08361 18.6747 7.97054 18.6747 6.5908C18.6747 5.24816 18.3256 4.10031 17.6273 3.13797C16.462 1.5704 14.4899 0.768058 11.7015 0.726318H0.654419V23.3425H10.9547C12.1154 23.3425 13.1905 23.2428 14.1847 23.0387C15.1788 22.8323 16.0389 22.4543 16.7672 21.9025C17.4146 21.4224 17.9556 20.8265 18.3857 20.1239C19.0654 19.0618 19.4053 17.8583 19.4053 16.518C19.4053 15.2194 19.1071 14.1133 18.5152 13.2043C17.9163 12.2953 17.0378 11.6298 15.8725 11.2077ZM5.21151 4.65452H10.1871C11.2807 4.65452 12.1824 4.77279 12.8899 5.007C13.7084 5.34787 14.1176 6.04122 14.1176 7.09864C14.1176 8.04706 13.8055 8.71027 13.1882 9.08361C12.5662 9.45695 11.7593 9.64478 10.7697 9.64478H5.21151V4.65452ZM13.0795 19.0201C12.5292 19.2867 11.7547 19.4189 10.7628 19.4189H5.21151V13.3875H10.8391C11.8194 13.3944 12.5824 13.5243 13.128 13.7678C14.0991 14.2084 14.5823 15.0153 14.5823 16.1957C14.5823 17.587 14.0829 18.5238 13.0795 19.0201Z" fill="white"/>
<path d="M34.0891 1.78125H24.2928V4.59639H34.0891V1.78125Z" fill="white"/>
<path d="M37.4925 12.8913C37.289 11.5811 36.8405 10.4286 36.1422 9.43384C35.3769 8.30686 34.4058 7.48133 33.2244 6.95958C32.0475 6.43551 30.7227 6.17348 29.2476 6.1758C26.7714 6.1758 24.7599 6.95263 23.2039 8.49469C21.6525 10.0414 20.8756 12.2652 20.8756 15.1638C20.8756 18.2549 21.7334 20.488 23.4582 21.8585C25.1761 23.2313 27.1598 23.9153 29.4118 23.9153C32.1377 23.9153 34.2579 23.1014 35.7723 21.4782C36.741 20.4532 37.289 19.4445 37.4092 18.4543H32.8961C32.6348 18.9436 32.3319 19.3262 31.9851 19.6045C31.3562 20.1147 30.5378 20.3697 29.5343 20.3697C28.5794 20.3697 27.7702 20.1587 27.0951 19.739C25.9807 19.0665 25.398 17.8885 25.324 16.212H37.6404C37.6589 14.7673 37.6127 13.6565 37.4925 12.8913ZM25.435 13.3249C25.5969 12.2374 25.9899 11.3748 26.6142 10.7371C27.2384 10.1017 28.1216 9.78168 29.2522 9.77936C30.295 9.77936 31.1666 10.0785 31.8764 10.6791C32.577 11.2843 32.9724 12.1632 33.0533 13.3249H25.435Z" fill="white"/>
</svg>
