<svg width="37" height="24" viewBox="0 0 37 24" fill="none" xmlns="http://www.w3.org/2000/svg">
<path d="M15.1883 11.3906C15.9544 11.0063 16.5336 10.5783 16.9305 10.1158C17.6366 9.28283 17.985 8.17834 17.985 6.80924C17.985 5.47696 17.6366 4.33796 16.9397 3.38304C15.7767 1.82756 13.8084 1.03141 11.0255 0.98999H0V23.4317H10.2801C11.4385 23.4317 12.5115 23.3328 13.5038 23.1303C14.496 22.9255 15.3544 22.5504 16.0813 22.0028C16.7274 21.5265 17.2674 20.9351 17.6966 20.2379C18.375 19.1841 18.7142 17.9898 18.7142 16.6599C18.7142 15.3713 18.4166 14.2737 17.8258 13.3717C17.2282 12.4697 16.3513 11.8093 15.1883 11.3906ZM4.54818 4.8879H9.51403C10.6055 4.8879 11.5054 5.00525 12.2116 5.23765C13.0284 5.5759 13.4369 6.2639 13.4369 7.31316C13.4369 8.25427 13.1253 8.91236 12.5092 9.28283C11.8885 9.65329 11.0832 9.83967 10.0955 9.83967H4.54818V4.8879ZM12.4008 19.1426C11.8516 19.4073 11.0785 19.5384 10.0886 19.5384H4.54818V13.5535H10.1648C11.1432 13.5604 11.9046 13.6893 12.4492 13.9309C13.4184 14.3681 13.9007 15.1688 13.9007 16.34C13.9007 17.7206 13.4023 18.6502 12.4008 19.1426Z" fill="white"/>
<path d="M33.3689 2.03687H23.5918V4.83029H33.3689V2.03687Z" fill="white"/>
<path d="M36.766 13.0612C36.5629 11.7611 36.1153 10.6175 35.4184 9.63039C34.6546 8.5121 33.6854 7.69294 32.5063 7.17522C31.3317 6.65519 30.0095 6.39518 28.5373 6.39748C26.0659 6.39748 24.0583 7.16831 22.5053 8.69848C20.957 10.2333 20.1816 12.4399 20.1816 15.3162C20.1816 18.3834 21.0377 20.5993 22.7592 21.9592C24.4737 23.3214 26.4536 24.0002 28.7011 24.0002C31.4217 24.0002 33.5377 23.1925 35.0492 21.5818C36.016 20.5648 36.5629 19.5638 36.6829 18.5813H32.1786C31.9178 19.0668 31.6155 19.4465 31.2694 19.7226C30.6418 20.2288 29.8249 20.4819 28.8234 20.4819C27.8704 20.4819 27.0628 20.2726 26.3889 19.8561C25.2767 19.1888 24.6952 18.0199 24.6214 16.3562H36.9137C36.9321 14.9227 36.886 13.8205 36.766 13.0612ZM24.7321 13.4915C24.8937 12.4123 25.2859 11.5563 25.909 10.9236C26.532 10.2931 27.4135 9.97554 28.5419 9.97324C29.5826 9.97324 30.4525 10.2701 31.161 10.866C31.8601 11.4666 32.2547 12.3387 32.3355 13.4915H24.7321Z" fill="white"/>
</svg>
