<svg width="14" height="24" viewBox="0 0 14 24" fill="none" xmlns="http://www.w3.org/2000/svg">
<path d="M4.08771 13.4785C3.9978 13.4785 2.01972 13.4785 1.1206 13.4785C0.641065 13.4785 0.491211 13.2992 0.491211 12.8509C0.491211 11.6555 0.491211 10.4302 0.491211 9.23473C0.491211 8.75656 0.671036 8.60713 1.1206 8.60713H4.08771C4.08771 8.51747 4.08771 6.78409 4.08771 5.97717C4.08771 4.78174 4.2975 3.64607 4.89692 2.60007C5.52631 1.52418 6.42543 0.806918 7.56432 0.388516C8.31359 0.119543 9.06286 0 9.87208 0H12.8092C13.2288 0 13.4086 0.179315 13.4086 0.597717V4.0047C13.4086 4.42311 13.2288 4.60242 12.8092 4.60242C12 4.60242 11.1908 4.60242 10.3816 4.63231C9.57237 4.63231 9.15278 5.02082 9.15278 5.85763C9.12281 6.7542 9.15278 7.62089 9.15278 8.54736H12.6294C13.1089 8.54736 13.2887 8.72667 13.2887 9.20485V12.821C13.2887 13.2992 13.1389 13.4486 12.6294 13.4486C11.5504 13.4486 9.24269 13.4486 9.15278 13.4486V23.1914C9.15278 23.6995 9.00292 23.8788 8.46345 23.8788C7.20467 23.8788 5.97587 23.8788 4.7171 23.8788C4.26753 23.8788 4.08771 23.6995 4.08771 23.2512C4.08771 20.1132 4.08771 13.5682 4.08771 13.4785Z" fill="white"/>
</svg>
