<svg width="13" height="25" viewBox="0 0 13 25" fill="none" xmlns="http://www.w3.org/2000/svg">
<path d="M3.61949 14.1114C3.529 14.1114 1.53828 14.1114 0.633411 14.1114C0.150812 14.1114 0 13.9237 0 13.4543C0 12.2028 0 10.9199 0 9.66833C0 9.16771 0.180975 9.01126 0.633411 9.01126H3.61949C3.61949 8.9174 3.61949 7.10263 3.61949 6.25782C3.61949 5.00626 3.83063 3.81727 4.43387 2.72215C5.06729 1.59574 5.97216 0.844806 7.11833 0.406758C7.87239 0.125156 8.62645 0 9.44084 0H12.3968C12.819 0 13 0.187735 13 0.625782V4.19274C13 4.63079 12.819 4.81852 12.3968 4.81852C11.5824 4.81852 10.768 4.81852 9.9536 4.84981C9.13921 4.84981 8.71694 5.25657 8.71694 6.13267C8.68678 7.07134 8.71694 7.97872 8.71694 8.94869H12.2158C12.6984 8.94869 12.8794 9.13642 12.8794 9.63705V13.423C12.8794 13.9237 12.7285 14.0801 12.2158 14.0801C11.1299 14.0801 8.80743 14.0801 8.71694 14.0801V24.2803C8.71694 24.8123 8.56613 25 8.0232 25C6.75638 25 5.51972 25 4.2529 25C3.80046 25 3.61949 24.8123 3.61949 24.3429C3.61949 21.0576 3.61949 14.2053 3.61949 14.1114Z" fill="white"/>
</svg>
