<svg width="25" height="25" viewBox="0 0 25 25" fill="none" xmlns="http://www.w3.org/2000/svg">
<path d="M19.8519 5.41357C19.5313 5.41357 19.2705 5.67368 19.2705 5.99329C19.2705 6.3129 19.5313 6.573 19.8519 6.573C20.1724 6.573 20.4332 6.31295 20.4332 5.99329C20.4332 5.67363 20.1724 5.41357 19.8519 5.41357Z" fill="white"/>
<path d="M12.8903 7.79517C10.0484 7.79517 7.73633 10.1007 7.73633 12.9345C7.73633 15.7684 10.0484 18.0739 12.8903 18.0739C15.7322 18.0739 18.0443 15.7684 18.0443 12.9346C18.0443 10.1007 15.7322 7.79517 12.8903 7.79517Z" fill="white"/>
<path d="M18.3 0.995117H7.48259C3.86285 0.995117 0.917969 3.93165 0.917969 7.54117V18.3279C0.917969 21.9374 3.86285 24.8739 7.48259 24.8739H18.3C21.9198 24.8739 24.8647 21.9374 24.8647 18.3279V7.54117C24.8647 3.93165 21.9198 0.995117 18.3 0.995117ZM12.8913 19.484C9.26961 19.484 6.32323 16.546 6.32323 12.9345C6.32323 9.32308 9.26966 6.3851 12.8913 6.3851C16.513 6.3851 19.4594 9.32313 19.4594 12.9345C19.4594 16.5459 16.513 19.484 12.8913 19.484ZM19.8523 7.98321C18.7519 7.98321 17.8567 7.09055 17.8567 5.99334C17.8567 4.89613 18.7519 4.00343 19.8523 4.00343C20.9526 4.00343 21.8478 4.89608 21.8478 5.9933C21.8478 7.09051 20.9526 7.98321 19.8523 7.98321Z" fill="white"/>
</svg>
