<svg width="25" height="25" viewBox="0 0 25 25" fill="none" xmlns="http://www.w3.org/2000/svg">
<path d="M19.6015 5.17651C19.2804 5.17651 19.019 5.43864 19.019 5.76073C19.019 6.08283 19.2804 6.34495 19.6015 6.34495C19.9227 6.34495 20.184 6.08288 20.184 5.76073C20.184 5.43859 19.9227 5.17651 19.6015 5.17651Z" fill="white"/>
<path d="M12.6268 7.57654C9.77937 7.57654 7.46277 9.89997 7.46277 12.7558C7.46277 15.6117 9.77937 17.9352 12.6268 17.9352C15.4743 17.9352 17.7909 15.6117 17.7909 12.7559C17.7909 9.90002 15.4743 7.57654 12.6268 7.57654Z" fill="white"/>
<path d="M18.0462 0.723633H7.20761C3.58078 0.723633 0.630127 3.68299 0.630127 7.32057V18.1911C0.630127 21.8287 3.58078 24.788 7.20761 24.788H18.0462C21.6731 24.788 24.6237 21.8287 24.6237 18.1911V7.32057C24.6237 3.68299 21.6731 0.723633 18.0462 0.723633ZM12.6269 19.3562C8.99813 19.3562 6.04598 16.3953 6.04598 12.7558C6.04598 9.11633 8.99818 6.15551 12.6269 6.15551C16.2557 6.15551 19.2079 9.11637 19.2079 12.7558C19.2079 16.3953 16.2557 19.3562 12.6269 19.3562ZM19.6015 7.76604C18.499 7.76604 17.6021 6.86645 17.6021 5.76071C17.6021 4.65497 18.499 3.75532 19.6015 3.75532C20.704 3.75532 21.601 4.65492 21.601 5.76066C21.601 6.8664 20.704 7.76604 19.6015 7.76604Z" fill="white"/>
</svg>
