<svg width="25" height="25" viewBox="0 0 25 25" fill="none" xmlns="http://www.w3.org/2000/svg">
<path d="M24.5574 24.7853V15.9717C24.5574 11.6402 23.6276 8.3313 18.589 8.3313C16.1596 8.3313 14.5401 9.65484 13.8802 10.9182H13.8202V8.72235H9.05151V24.7853H14.0302V16.814C14.0302 14.7084 14.4201 12.693 16.9994 12.693C19.5487 12.693 19.5787 15.0693 19.5787 16.9343V24.7553H24.5574V24.7853Z" fill="white"/>
<path d="M0.953613 8.72229H5.93229V24.7853H0.953613V8.72229Z" fill="white"/>
<path d="M3.44295 0.720947C1.85338 0.720947 0.563721 2.01441 0.563721 3.60868C0.563721 5.20294 1.85338 6.52649 3.44295 6.52649C5.03253 6.52649 6.32219 5.20294 6.32219 3.60868C6.32219 2.01441 5.03253 0.720947 3.44295 0.720947Z" fill="white"/>
</svg>
