<svg width="25" height="24" viewBox="0 0 25 24" fill="none" xmlns="http://www.w3.org/2000/svg">
<path d="M24.3554 23.8789V15.1333C24.3554 10.8351 23.4275 7.55176 18.3987 7.55176C15.9741 7.55176 14.3577 8.86509 13.6992 10.1187H13.6393V7.93979H8.87988V23.8789H13.8488V15.969C13.8488 13.8796 14.238 11.8798 16.8122 11.8798C19.3566 11.8798 19.3865 14.2378 19.3865 16.0884V23.849H24.3554V23.8789Z" fill="white"/>
<path d="M0.796875 7.9397H5.76581V23.8788H0.796875V7.9397Z" fill="white"/>
<path d="M3.28181 0C1.69534 0 0.408203 1.28349 0.408203 2.86546C0.408203 4.44743 1.69534 5.76076 3.28181 5.76076C4.86827 5.76076 6.15541 4.44743 6.15541 2.86546C6.15541 1.28349 4.86827 0 3.28181 0Z" fill="white"/>
</svg>
