<svg width="30" height="22" viewBox="0 0 30 22" fill="none" xmlns="http://www.w3.org/2000/svg">
<path d="M26.4431 0.285645H3.154C1.66988 0.285645 0.466797 1.48873 0.466797 2.97284V19.096C0.466797 20.5802 1.66988 21.7832 3.154 21.7832H26.4431C27.9272 21.7832 29.1303 20.5802 29.1303 19.096V2.97284C29.1303 1.48873 27.9272 0.285645 26.4431 0.285645ZM26.4431 2.97284V5.25724C25.1878 6.27944 23.1866 7.86892 18.9084 11.2189C17.9656 11.9605 16.098 13.7422 14.7985 13.7214C13.4993 13.7424 11.631 11.9602 10.6886 11.2189C6.41111 7.86942 4.40942 6.27961 3.154 5.25724V2.97284H26.4431ZM3.154 19.096V8.70542C4.4368 9.72717 6.25598 11.161 9.02877 13.3322C10.2524 14.2954 12.3953 16.4217 14.7985 16.4088C17.19 16.4217 19.3057 14.3263 20.5678 13.3327C23.3405 11.1615 25.1602 9.72729 26.4431 8.70548V19.096H3.154Z" fill="white"/>
</svg>
