<svg width="28" height="29" viewBox="0 0 28 29" fill="none" xmlns="http://www.w3.org/2000/svg">
<path d="M13.9789 0C6.29113 0 0.0327902 6.42132 0.0299976 14.3161C0.0286014 16.8397 0.672253 19.3033 1.89258 21.4742L0 28.677L7.30579 26.9043C9.34292 28.0456 11.6362 28.6448 13.9707 28.6462H13.9762C21.6625 28.6462 27.9182 22.2234 27.9223 14.3301C27.9251 10.5032 26.476 6.90504 23.8427 4.19793C21.2093 1.49226 17.7097 0.00143385 13.9789 0ZM13.9762 2.8677C16.9586 2.86913 19.7613 4.06324 21.8683 6.22549C23.9752 8.3906 25.1326 11.2675 25.1298 14.3273C25.127 20.642 20.1253 25.7785 13.9734 25.7785C12.1122 25.7771 10.2686 25.2972 8.64477 24.3867L7.70394 23.8602L6.66493 24.1122L3.91606 24.7787L4.58691 22.2191L4.88962 21.0709L4.31148 20.0403C3.33689 18.3082 2.82111 16.3278 2.82251 14.3161C2.8253 8.00429 7.82847 2.8677 13.9762 2.8677ZM9.04292 7.70695C8.80975 7.70695 8.43274 7.79656 8.113 8.15502C7.79326 8.51205 6.89128 9.37678 6.89128 11.1375C6.89128 12.8983 8.14027 14.6003 8.3148 14.8398C8.48794 15.0778 10.7257 18.8053 14.268 20.2391C17.2113 21.4307 17.8091 21.1955 18.4485 21.1353C19.088 21.0765 20.5116 20.2713 20.802 19.4354C21.0924 18.5995 21.0931 17.8804 21.0065 17.7327C20.92 17.5836 20.6875 17.4947 20.3384 17.3154C19.9907 17.1362 18.2774 16.2722 17.9577 16.1532C17.6379 16.0342 17.4041 15.974 17.1723 16.3325C16.9405 16.6909 16.2744 17.4947 16.0706 17.7327C15.8667 17.9722 15.6642 18.0043 15.3152 17.8251C14.9661 17.6444 13.8438 17.2656 12.5117 16.0468C11.4757 15.099 10.7767 13.9296 10.5728 13.5712C10.3703 13.2141 10.5537 13.018 10.7282 12.8402C10.8846 12.6797 11.0746 12.4223 11.2491 12.2129C11.4223 12.0036 11.4823 11.8544 11.5982 11.6164C11.7141 11.3784 11.6547 11.1684 11.5682 10.9891C11.4816 10.8099 10.8037 9.04258 10.4937 8.33426C10.2326 7.73921 9.95686 7.72538 9.70833 7.71535C9.50587 7.70674 9.2747 7.70695 9.04292 7.70695Z" fill="white"/>
</svg>
