<svg width="28" height="29" viewBox="0 0 28 29" fill="none" xmlns="http://www.w3.org/2000/svg">
<path d="M13.9789 0.317139C6.29113 0.317139 0.0327902 6.71574 0.0299976 14.5826C0.0286014 17.0972 0.672253 19.5522 1.89258 21.7153L0 28.8927L7.30579 27.1263C9.34292 28.2636 11.6362 28.8606 13.9707 28.862H13.9762C21.6625 28.862 27.9182 22.462 27.9223 14.5965C27.9251 10.7831 26.476 7.19775 23.8427 4.50022C21.2093 1.80412 17.7097 0.318567 13.9789 0.317139ZM13.9762 3.17469C16.9586 3.17612 19.7613 4.366 21.8683 6.5206C23.9752 8.67806 25.1326 11.5447 25.1298 14.5938C25.127 20.8861 20.1253 26.0044 13.9734 26.0044C12.1122 26.003 10.2686 25.5248 8.64477 24.6175L7.70394 24.0929L6.66493 24.344L3.91606 25.0082L4.58691 22.4576L4.88962 21.3135L4.31148 20.2865C3.33689 18.5606 2.82111 16.5872 2.82251 14.5826C2.8253 8.29311 7.82847 3.17469 13.9762 3.17469ZM9.04292 7.99682C8.80975 7.99682 8.43274 8.08612 8.113 8.44331C7.79326 8.79908 6.89128 9.66074 6.89128 11.4153C6.89128 13.1698 8.14027 14.8658 8.3148 15.1044C8.48794 15.3416 10.7257 19.0559 14.268 20.4847C17.2113 21.672 17.8091 21.4377 18.4485 21.3777C19.088 21.3191 20.5116 20.5168 20.802 19.6838C21.0924 18.8508 21.0931 18.1343 21.0065 17.9871C20.92 17.8385 20.6875 17.7499 20.3384 17.5713C19.9907 17.3927 18.2774 16.5318 17.9577 16.4132C17.6379 16.2946 17.4041 16.2346 17.1723 16.5918C16.9405 16.949 16.2744 17.7499 16.0706 17.9871C15.8667 18.2257 15.6642 18.2578 15.3152 18.0792C14.9661 17.8992 13.8438 17.5216 12.5117 16.3072C11.4757 15.3627 10.7767 14.1975 10.5728 13.8403C10.3703 13.4845 10.5537 13.2891 10.7282 13.112C10.8846 12.9519 11.0746 12.6955 11.2491 12.4869C11.4223 12.2783 11.4823 12.1296 11.5982 11.8925C11.7141 11.6553 11.6547 11.446 11.5682 11.2674C11.4816 11.0888 10.8037 9.32773 10.4937 8.62191C10.2326 8.02897 9.95686 8.01519 9.70833 8.00519C9.50587 7.99662 9.2747 7.99682 9.04292 7.99682Z" fill="white"/>
</svg>
