<svg width="37" height="25" viewBox="0 0 37 25" fill="none" xmlns="http://www.w3.org/2000/svg">
<path d="M35.7569 3.89211C35.3462 2.37023 34.1429 1.17062 32.617 0.760805C29.8291 0 18.6773 0 18.6773 0C18.6773 0 7.52575 0 4.73781 0.731804C3.24123 1.14134 2.00857 2.3705 1.59787 3.89211C0.864258 6.67189 0.864258 12.4369 0.864258 12.4369C0.864258 12.4369 0.864258 18.2309 1.59787 20.9816C2.00885 22.5032 3.21187 23.7031 4.73808 24.1129C7.55511 24.8738 18.6775 24.8738 18.6775 24.8738C18.6775 24.8738 29.8291 24.8738 32.617 24.1419C34.1432 23.7324 35.3462 22.5325 35.7572 21.0109C36.4908 18.2309 36.4908 12.4661 36.4908 12.4661C36.4908 12.4661 36.5202 6.67189 35.7569 3.89211Z" fill="white"/>
<path d="M15.126 17.7627L24.3993 12.4367L15.126 7.11084V17.7627Z" fill="#212121"/>
</svg>
