<svg width="37" height="26" viewBox="0 0 37 26" fill="none" xmlns="http://www.w3.org/2000/svg">
<path d="M35.5699 4.64331C35.1584 3.1096 33.9528 1.90066 32.4238 1.48767C29.6304 0.720947 18.4568 0.720947 18.4568 0.720947C18.4568 0.720947 7.28343 0.720947 4.49003 1.45844C2.99051 1.87116 1.75544 3.10988 1.34394 4.64331C0.608887 7.44469 0.608887 13.2545 0.608887 13.2545C0.608887 13.2545 0.608887 19.0935 1.34394 21.8657C1.75572 23.3991 2.9611 24.6083 4.4903 25.0213C7.31285 25.788 18.4571 25.788 18.4571 25.788C18.4571 25.788 29.6304 25.788 32.4238 25.0505C33.953 24.6378 35.1584 23.4286 35.5702 21.8952C36.3052 19.0935 36.3052 13.284 36.3052 13.284C36.3052 13.284 36.3347 7.44469 35.5699 4.64331Z" fill="white"/>
<path d="M14.8989 18.6216L24.1904 13.2543L14.8989 7.88696V18.6216Z" fill="black"/>
</svg>
